<svg height="511.20349pt" viewBox="0 0 511.20349 511.20349" width="511.20349pt" xmlns="http://www.w3.org/2000/svg"><path d="m135.527344 475.554688-26.429688 26.429687c-14.601562 14.597656-41.332031 11.527344-59.71875-6.859375l-33.300781-33.296875c-18.386719-18.417969-21.457031-45.121094-6.859375-59.71875l26.429688-26.429687zm0 0" fill="#fb7b76"/><path d="m88.507812 322.820312 264.304688-264.308593 99.875 99.875-264.308594 264.304687zm0 0" fill="#e64c3c"/><g fill="#c03a2b"><path d="m138.414062 381.617188c-3.574218-.007813-6.789062-2.175782-8.144531-5.484376-1.351562-3.308593-.578125-7.105468 1.964844-9.617187l264.277344-264.308594c3.464843-3.34375 8.972656-3.296875 12.375.109375 3.40625 3.402344 3.453125 8.910156.109375 12.375l-264.308594 264.277344c-1.652344 1.6875-3.914062 2.644531-6.273438 2.648438zm0 0"/><path d="m282.355469 287.613281c-3.570313 0-6.789063-2.152343-8.15625-5.449219-1.363281-3.296874-.609375-7.09375 1.914062-9.617187l145.375-145.375c2.214844-2.292969 5.496094-3.214844 8.582031-2.40625 3.085938.808594 5.496094 3.21875 6.304688 6.304687.808594 3.085938-.113281 6.367188-2.40625 8.585938l-145.371094 145.371094c-1.65625 1.65625-3.902344 2.585937-6.242187 2.585937zm0 0"/><path d="m163.421875 406.546875c-3.570313 0-6.789063-2.152344-8.15625-5.449219-1.363281-3.296875-.609375-7.09375 1.914063-9.617187l72.6875-72.679688c3.449218-3.445312 9.042968-3.441406 12.488281.007813 3.449219 3.453125 3.445312 9.046875-.007813 12.492187l-72.6875 72.660157c-1.652344 1.65625-3.898437 2.585937-6.238281 2.585937zm0 0"/><path d="m113.484375 356.609375c-3.570313 0-6.789063-2.152344-8.15625-5.449219-1.363281-3.296875-.609375-7.09375 1.914063-9.617187l185.007812-185.027344c2.230469-2.230469 5.480469-3.105469 8.527344-2.289063 3.046875.816407 5.429687 3.195313 6.246094 6.242188.816406 3.046875-.050782 6.296875-2.28125 8.527344l-185.019532 185.027344c-1.648437 1.660156-3.898437 2.59375-6.238281 2.585937zm0 0"/><path d="m344.75 125.34375c-3.570312 0-6.789062-2.148438-8.15625-5.449219-1.367188-3.296875-.609375-7.09375 1.914062-9.617187l33.039063-33.042969c2.21875-2.292969 5.5-3.214844 8.585937-2.40625 3.085938.808594 5.496094 3.21875 6.304688 6.304687.808594 3.085938-.113281 6.367188-2.40625 8.585938l-33.042969 33.039062c-1.652343 1.65625-3.898437 2.585938-6.238281 2.585938zm0 0"/></g><path d="m352.816406 58.527344 142.175782-58.109375c4.445312-1.15625 9.171874.128906 12.417968 3.375 3.246094 3.246093 4.53125 7.972656 3.375 12.417969l-58.109375 142.175781zm0 0" fill="#fac176"/><path d="m88.503906 322.816406 99.875 99.871094c6.894532 6.894531 6.894532 18.074219 0 24.96875l-27.894531 27.894531c-6.898437 6.894531-18.074219 6.894531-24.96875 0l-99.875-99.871093c-6.894531-6.894532-6.894531-18.074219 0-24.96875l27.898437-27.894532c6.894532-6.894531 18.070313-6.894531 24.964844 0zm0 0" fill="#d1d4d1"/><path d="m510.761719 16.246094-20.394531 49.964844-45.371094-45.375 49.960937-20.390626c4.449219-1.167968 9.183594.113282 12.4375 3.363282 3.25 3.253906 4.53125 7.988281 3.367188 12.4375zm0 0" fill="#2c2f38"/></svg>