<?xml version="1.0" encoding="utf-8"?>
<!-- Generator: Adobe Illustrator 22.1.0, SVG Export Plug-In . SVG Version: 6.00 Build 0)  -->
<svg version="1.1" id="Layer_1" xmlns="http://www.w3.org/2000/svg" xmlns:xlink="http://www.w3.org/1999/xlink" x="0px" y="0px"
	 viewBox="0 0 612 792" style="enable-background:new 0 0 612 792;" xml:space="preserve">
<g>
	<path d="M209.2,405.2c0-2.5,0-4.9,0-7.7c6.2,4.8,5,11.7,6.9,18.2c1-3.6,1.8-6.6,2.7-10c0.7,2.6,1.2,4.7,1.8,6.9
		c-2.1-20.5-10.1-40-9.3-60.9c0.9,18.3,5.3,35.8,11.7,53.1c-0.6-6.4-1.1-12.8-1.7-19.2c0.1,0,0.2,0.1,0.3,0.1
		c1.2,5.2,2.3,10.5,3.5,15.7c0.4,0,0.8-0.1,1.1-0.1c-0.4-3.4-0.8-6.8-1.2-10.2c0.2-0.1,0.3-0.1,0.5-0.2c0.4,0.7,0.7,1.5,1.1,2.2
		c1.1-8.3-4.1-16-1.6-25c1.1,5,2.1,9.2,3.1,13.5c0.1,0,0.1-0.1,0.2-0.1c-1.1-15.3-2.1-30.6-3.2-46c0.4,0,0.8-0.1,1.2-0.1
		c0.3,5.8,0.5,11.6,0.9,17.4c0.5,5.8,1.2,11.5,2.5,17.2c-1.3-19.1-2.5-38.1-3.8-56.5c-3.5,2.5-5.6,6.6-5.6,11.8
		c-0.1-0.7-0.2-1.3-0.3-1.9c-6.5,4-8,10.7-8.9,18.3c-0.1-2.5-0.2-4.4-0.3-6.3c-2.3,1.2,0.7,6.4-4.3,5.4c-5.8,16.1-3.2,32.5-1.9,49
		c-0.3-0.6-0.8-1.1-0.9-1.7c-1.7-15.4-3.8-30.9-0.7-46.3c1.2-5.9,4.5-11.5,7.5-16.8c5.2-9.1,10.9-17.9,17.2-26.6
		c0.3,3,0.5,6,0.8,8.9c0.8-1.5,1.6-3.1,2.5-4.7c0.2,0.1,0.4,0.2,0.6,0.3c-0.5,10.3-1,20.5-1.5,30.8c-0.1,0-0.1,0-0.2,0
		c-0.2-4.4-0.5-8.7-0.7-13.6c-3.8,7.9,2.5,59.4,8.3,62.4c-6.9-19.7-9-39.2-5.6-58.8c0,0,0.2,0.4,0.3,0.5c0.4-5.6,0.9-11.4,1.3-17.2
		c0.2,0,0.3,0,0.5,0c0,11.5,0,23,0,34.4c0.3,0,0.7,0,1,0c0-7.3,0-14.5,0-21.8c0.4,0,0.8,0,1.2,0c0,15.2,0,30.3,0,45.5
		c0.4,0,0.7,0,1.1,0c0-1.7,0-3.3,0-5c0.1,0,0.3,0,0.4,0c1.2,7.1,2.3,14.3,3.3,20.7c1.5,0.4,2.3,0.6,3.5,1c-1.1-3.9-2.3-8-3.4-12.1
		c-0.3-1.1-0.3-2.2-0.3-3.3c0.3-3.4,0.7-6.9,1.1-10.3c-0.4-0.1-0.8-0.1-1.2-0.2c-0.4,1-0.8,2.1-1.2,3.1c-0.2,0-0.4,0-0.5,0
		c0-6.5,0-12.9,0-20c1.7,7.5,3.3,14.4,4.8,21.4c4.9-5.1-0.7-11.6,2.4-16.1c1.2,5.8,2.4,12.1,3.7,18.4c0.2,0,0.3,0,0.5,0
		c0.2-0.8,0.3-1.5,0.5-2.5c0.4,0.7,0.6,1.3,1,2.1c0.2-0.6,0.4-1,0.3-1.3c-1.1-6.1-2.3-12.3-3.2-18.4c-0.3-2.3-0.1-4.7,0.5-7.3
		c0.5,1,0.9,1.9,1.4,2.9c0.3,0,0.7,0,1-0.1c0-6.5,0-13.1,0-19.6c0.3,0,0.5,0,0.8,0c0,3.4,0,6.9,0,10.3c0.3,0,0.5,0,0.8,0
		c0-3.9,0-7.8,0-11.7c0.2,0,0.5,0,0.7,0c0.6,10.4,1.1,20.7,1.7,31.1c0.1,0,0.1,0,0.2-0.1c0.8-12.8,1.5-25.6,2.3-38.5
		c0.2,0,0.4,0,0.6,0c0,10.9,0,21.8,0,32.8c0.3,0,0.6,0,0.9,0c0.1-1.2,0.3-2.4,0.4-3.6c0.4,0.4,0.7,0.8,1.3,1.5
		c-0.3-3.9-0.5-7.5-0.7-11c0.2,0,0.4,0,0.6-0.1c0.4,2.6,0.8,5.2,1.2,7.8c0.1,0,0.2,0,0.3-0.1c0-11.3,0-22.6,0-34.1
		c1.8,13.6,2,27.3,6.9,40.3c-1.6-9.6-3.3-19.1-4.9-28.7c0.2-0.1,0.5-0.1,0.7-0.2c0.9,3.7,1.7,7.3,2.6,11c0.2,0,0.4-0.1,0.6-0.1
		c0-1.3,0-2.5,0-3.8c0.2,0,0.4-0.1,0.6-0.1c1.2,6.7,2.4,13.3,3.5,20c0.3,0,0.6-0.1,0.9-0.1c-0.9-6.6-1.8-13.3-2.7-19.9
		c0.2,0,0.5-0.1,0.7-0.1c1.1,7.2,2.3,14.3,3.4,21.5c0.1,0,0.3,0,0.4,0c-0.7-8.7-1.4-17.5-2.1-26.2c0.1,0,0.3,0,0.4-0.1
		c0.7,3.3,1.3,6.5,2,9.8c0.3,0,0.5-0.1,0.8-0.1c-0.7-3.9-1.7-7.7-2.1-11.6c-1.4-15-7.3-29.4-6.9-44.7c0.1-5.3,0-10.5-0.5-15.8
		c-0.1,1.6-0.2,3.3-0.3,4.9c-0.2-3.1-1.9-6.6,2.6-8.7c-0.2,4.1-0.4,8-0.6,12c0.1,0,0.2,0,0.2,0c0.1-0.8,0.2-1.6,0.3-2.4
		c0.3,0,0.5,0,0.8,0.1c-0.2,3.5-0.7,7-0.4,10.4c0.5,5.1,1.6,10.1,2.5,15.1c0.8,4.4,1.8,8.8,2.6,13.3c0.8,4.3,1.3,8.6,2.5,12.8
		c0.9,3.3,2.8,6.2,4.3,9.5c-0.7-4.6-1.4-9.2-2.1-13.8c0.4-0.1,0.7-0.1,1.1-0.2c0.7,2.1,1.5,4.2,2.2,6.3c0.1,0,0.2-0.1,0.4-0.1
		c-1.4-7.5-2.8-14.9-4.3-22.4c0.2-0.1,0.5-0.1,0.7-0.2c1.2,5.2,2.5,10.4,3.7,15.7c0.2,0,0.4-0.1,0.5-0.1c-0.8-4.6-1.5-9.2-2.3-13.8
		c0.2,0,0.4-0.1,0.6-0.1c1.2,5.4,2.4,10.8,3.8,16.9c0.3-1.3,0.5-2,0.8-3.2c0.6,2.2,1.1,3.9,1.7,6.1c-1.3-12.3-2.5-24.1-3.7-36
		c0.3,0,0.6-0.1,0.9-0.1c0.8,5.5,1.4,11.1,2.6,16.5c0.8,3.8,2.6,7.5,4.3,12.2c0.5-2.1,1.2-3.2,1-4.3c-1-9.6-2.1-19.2-3.2-28.8
		c-0.6-5.5-1.2-11-1.5-16.6c2.1,11.5,4.1,22.9,6.2,34.4c0.6,0,1.1-0.1,1.7-0.1c-0.1-1.7-0.1-3.5-0.4-5.2c-0.3-1.7-0.8-3.4-0.8-5.2
		c0.9,2.1,1.8,4.2,2.6,6.3c0.3,0,0.7,0,1,0c0-1.3,0.2-2.6,0-3.9c-0.2-1.4-0.9-2.7-1.3-4c0.3-0.1,0.7-0.3,1-0.4
		c2.1,4.1,4.2,8.3,6.3,12.4c0.2,0,0.3-0.1,0.5-0.1c-1.3-4.6-2.6-9.1-4-13.7c5.4,0.7,3.7,6.3,7.3,8.7c-2.5-7.5-4.9-15.1-7.6-23.2
		c1.2,1.8,2.1,3,2.9,4.3c0.3-0.2,0.6-0.4,0.9-0.6c-2.9-4.6-5.8-9.2-8.7-13.8c0-0.7,0-1.4,0-2.1c-1.4-7.5-1.5-14.9,0.7-22.3
		c0.3-0.9,1.6-1.4,2.4-2.1c-0.2,1.1-0.4,2.3-0.5,3.4c-0.3,4.6-1.2,9.3-0.8,13.9c1.2,13.4,11.6,22.6,15.9,34.8c0.2-1.4,0.3-2.8-0.1-4
		c-2.7-7.8-5.5-15.7-8.4-23.4c-2.6-7.2-4.5-14.5-2.9-21.7c0.8,4.5,1.7,9.6,2.6,14.6c0.6,0,1.2-0.1,1.7-0.1c0-5.3,0-10.5,0-15.8
		c0.4,0,0.7,0,1.1,0c0,4.1-0.3,8.1,0.1,12.2c0.4,4.1,1.3,8.2,2.4,12.2c1,3.7,2.6,7.2,4.2,11.5c0.7-2.8,1.1-4.6,1.6-6.8
		c0.9,3.6,1.8,6.7,2.6,9.7c0.3-0.1,0.5-0.1,0.8-0.2c-0.2-1.7-0.4-3.5-0.7-5.5c1.6,3,2.9,5.6,4.3,8.1c0.1-7.2-1.4-14.3-1.5-21.3
		c0.5,0,0.9-0.1,1.4-0.1c1.7,5,3.4,10.1,5.3,16c2-4.6,4.2-8.3,2.4-12.8c-0.8-1.9-1.5-3.9-2-5.9c-1.3-4.8-2.6-9.7-3.9-14.5
		c0.2,0,0.4-0.1,0.6-0.1c2.5,7.7,5,15.3,7.5,23c0.3-0.1,0.6-0.2,0.9-0.3c-0.2-3.3-0.5-6.7-0.7-10c0.5,0,1,0,1.5,0
		c0,8.2,0,16.3,0,24.5c0.5,0,1,0,1.5,0c1.7-7.7-0.1-15.4,0.2-23.2c0.7,6.1,1.3,12.3,2,18.4c0.1,0,0.2,0,0.2,0c0-4.8,0-9.5,0-14.3
		c0.1,0,0.3,0,0.4,0c0.5,2.2,1,4.4,1.5,6.6c0.2,0,0.4,0,0.7,0c0-3.7,0-7.4,0-11.9c0.8,1.7,1.2,2.5,1.7,3.6c0.5-1.3,0.8-2.2,1.2-3.1
		c0.2,0.1,0.5,0.1,0.7,0.2c-0.3,2.2-0.5,4.3-0.8,6.5c0.4,0,0.8,0,1.2,0c0-5.9,0-11.8,0-18.1c1.2,2.6,2.2,4.8,3.1,6.9
		c0.2-0.1,0.3-0.1,0.5-0.2c-0.8-4.7-1.7-9.4-2.5-14c0.2,0,0.5-0.1,0.7-0.1c0.7,1.8,1.4,3.6,2.2,5.4c0.4-0.1,0.9-0.2,1.3-0.3
		c-1.1-6.8-2.2-13.7-3.2-19.9c4.6,6.5,3.8,14.7,4.3,22.7c0.2-1,0.4-2.1,0.8-4.2c0.6,5.1,1,9.1,1.5,13.1c0.2,0,0.3,0,0.5,0
		c-0.2-3.7-0.5-7.4-0.8-12.2c0.8,1.7,1.1,2.3,1.9,3.8c0-2.3,0-3.5,0-4.2c0.8-0.2,1.5-0.3,1.5-0.4c0.1-1.3,0-2.6-0.1-3.8
		c-0.1-2.7-0.3-5.3-0.4-8c0.3,0,0.7,0,1,0c0.4,5.2,0.7,10.4,1.1,15.7c0.1,0,0.3,0,0.4,0c0.5-5.6,0.9-11.2,1.4-16.8
		c0.2,0,0.4,0,0.5,0c0,4,0,7.9,0,11.9c0.4,0,0.8,0,1.2,0c0-6.8,0-13.5,0-20.3c0.3,0,0.5,0,0.8,0c0.6,5.4,1.2,10.8,1.9,16.1
		c0.3,0,0.6,0,1,0c0-3.4,0-6.7,0-10.1c0.4,0,0.8,0,1.3-0.1c0.6,4.7,1.2,9.4,1.6,12.8c0.8-4,1.8-9.3,2.8-14.5c0.3,0,0.5,0.1,0.8,0.1
		c0.2,1.2,0.4,2.3,0.5,3.5c0.2,0,0.3,0,0.5,0c0.4-6.2,0.9-12.4,1.3-18.5c0.1,0,0.2,0,0.4,0c0,5.3,0,10.6,0,15.9c0.2,0,0.3,0,0.5,0
		c0.4-4.9,0.8-9.9,1.3-14.8c0.2,0,0.3,0,0.5,0c0,6.9,0,13.7,0,20.6c0.7-3.5,0.5-7,0.7-10.4c0.2-3.4,0.8-6.8,1.2-10.1
		c0.4,0,0.9,0.1,1.3,0.1c0,3.4,0,6.7,0,10.1c0.3,0,0.6,0,1-0.1c-0.4-5.8-0.8-11.6-1.3-17.4c0.4,0,0.7,0,1.1,0
		c0.3,5.6,0.7,11.3,1,16.7c0.6-2.4,1.2-5.1,1.8-7.7c0.3,0.1,0.5,0.1,0.8,0.2c0.2,0.7,0.4,1.5,0.7,2.6c0.6-1.5,1.1-2.6,1.9-4.8
		c1.5,4.1,2.7,7.4,3.8,10.2c0.6-4.3,1.2-9.3,1.9-14.6c0.5,3.7,1,6.9,1.4,10.1c0.2,0,0.5-0.1,0.7-0.1c-0.2-3.2-0.5-6.3-0.7-9.5
		c0.1,0,0.3,0,0.4-0.1c0.2,0.9,0.5,1.8,0.7,2.7c0.4,0.1,0.8,0.2,1.1,0.2c1.2-3.9,2.5-7.8,3.8-12.1c0,1.8,0,3.2,0,4.5
		c0.1,0,0.2,0,0.3,0c0.3-0.9,0.5-1.9,0.8-2.8c0.1,0,0.2,0,0.3,0.1c-0.2,3.3-0.4,6.5-0.6,9.8c0.1,0,0.3,0,0.4,0
		c0.2-1.3,0.3-2.7,0.5-4c0.2,0,0.5,0,0.7,0c0.2,1.8,0.4,3.5,0.6,5.3c0.3,0,0.5,0,0.8,0c0.5-3.1,0.9-6.2,1.4-9.5
		c0.1,2.2,0.2,4.2,0.3,6.2c0.1,0,0.3,0,0.4,0c0.2-1.9,0.5-3.9,0.8-6.8c0.7,2,1.1,3.2,1.7,4.9c0.2-1.5,0.3-2.3,0.5-3.3
		c0.5,0.6,0.7,0.9,1.7,2.2c-0.7-3.6-1.1-6.1-1.6-8.6c0.1-0.1,0.3-0.1,0.4-0.2c0.4,0.7,0.8,1.4,1.2,2.1c0.5-2.1,0.9-4,1.5-6.5
		c0.3,1.3,0.5,2,0.8,3.3c1.1-3.4,1.9-6.2,2.7-8.6c1,0.5,1.9,1,2.6,1.3c0.2,1.8,0.3,3.9,0.5,6c1-1.8,0.8-3.7,1.3-5.4
		c0.2-0.7,1.8-1.1,3.5-2.1c0.1-0.4,0.6-1.8,1-3.3c0.4,0.1,0.9,0.2,1.3,0.3l0,0c4.5,0.1-0.4,2,1.2,3.3c1.1-0.3,2.6-0.7,4.7-1.2
		c1-1.7,2.4-4.1,4-6.7c0.6,0.2,1.5,0.6,2.5,1c0.7-1.8,1.4-3.5,2.6-6.3c1.1,2.6,1.8,4.1,2.4,5.6c0.8-1.6,1.8-3.5,2.9-5.8
		c0.6,1.5,1,2.6,1.6,4.2c1-1.4,1.6-2.3,2.2-3.2c0.8,0.7,1.5,1.3,2.1,1.9c2.1-2.3,4-4.8,6.2-6.7c0.7-0.6,2.5,0,3.8,0
		c-0.6,1.3-1.2,2.7-2.1,4.7c2.2-1.4,3.9-2,5.1-3.2c2.9-2.8,5.6-5.8,8.4-8.7c-1.2,2.7-2.4,5.4-3.6,8.1c-0.7,1.1-1.5,2.2-2.2,3.3
		c0.2,0.2,0.4,0.3,0.7,0.5c0.8-1,1.7-1.9,2.5-2.9c3.8-2.8,7.5-5.8,11.5-8.3c5.5-3.6,11.2-6.8,16.8-10.3c1-0.6,1.5-2.1,2.2-3.2
		c-3.5-0.2-6.8,1.5-8.7,0.6c-3.5-1.7-5,0.4-7.3,1.7c-1.9,1.1-3.9,1.9-5.8,2.8c0.2-0.2,0.1-0.5-0.1-0.6c0.2-0.7,0.3-1.5,0.5-2.4
		c-1.1,0.1-1.9,0.2-2.7,0.3c-1.6,0.3-3.2,0.7-4.7,1c-2.5,1-5.9,3.6-7.3,2.8c-3.9-2.3-5.2,0.9-8.1,2.8c0.4-2.5,0.8-4.3,1-5.8
		c-1.7-1.4-3.2-2.7-4.5-3.8c-4.3,5-8.6,10-13,15c-0.3-0.1-0.5-0.2-0.8-0.3c0.3-1.6,0.6-3.2,1.2-6c-1.4,2.6-2.3,4.2-3.7,6.7
		c0.3-1.9,0.4-2.7,0.6-3.4c-0.2-0.1-0.4-0.1-0.6-0.2c-0.9,1.8-1.9,3.6-2.9,5.5c-1-0.4-2-0.7-3-1.1c-0.5,1.2-1,2.1-1.5,3.2
		c-0.2-1-0.3-1.7-0.5-2.4c-0.9,0.5-1.8,1-3.1,1.7c0.2-1.6,0.4-2.6,0.6-4.7c-1.5,2.9-2.5,4.8-3.5,6.9c-0.8-0.4-1.4-0.8-2.1-1.2
		c-0.5,0.9-1.1,1.8-1.9,3.2c0.2-3,0.3-5.6,0.4-8.1c-0.3-0.2-0.6-0.4-0.8-0.6c-3,4.5-6.1,9-9,13.4c0-0.6-0.1-1.5-0.2-2.9
		c-0.7,1.4-1.3,2.3-1.8,3.3c-0.2-0.1-0.4-0.1-0.5-0.2c0.7-2.6,1.4-5.1,2.2-7.7c-0.2-0.1-0.4-0.2-0.6-0.3c-1.4,2-2.8,4-4.1,6
		c0-1.9,0.6-3.4,1-5c0.3-1.4,0.4-2.8,0.5-4.3c-0.3,0-0.6,0-0.9-0.1c-1.8,3-3.5,6.1-5.2,8.8c-7-2.4-8.6,3.1-11.2,7.2
		c0.1-0.7,0.2-1.4,0.3-2.2c-2,0.8-3.8,1.5-5.7,2.2c-0.1-0.3-0.1-0.6-0.2-0.9c-0.5,1-0.9,2-1.3,2.9c-1.1-1-2.1-2-3.2-2.9
		c-0.7,1.5-1.2,2.6-2.1,4.6c0.3-2.7,0.4-4.5,0.6-6.2c-0.3-0.1-0.6-0.3-0.9-0.4c-1.8,2.6-3.5,5.2-5.3,7.9c-0.3-1.9-0.6-3.7-0.9-5.4
		c-0.3,0.1-0.6,0.1-1,0.2c-0.7,2-1.4,4.1-2.1,6.2c-0.6-0.6-1.1-1.2-1.7-1.9c-0.3,1-0.4,1.7-0.8,3c-0.5-2.9-0.9-5-1.5-8.3
		c-1,3.2-1.7,5.3-2.4,7.4c-0.2,0-0.5,0-0.7,0c0.1-1.9,0.3-3.7,0.4-5.6c-3.5,5.3-2.4,12.8-8.3,17c-0.6-2.2-1.3-4.3-1.8-6.3
		c-3.9-0.7-3.8,2.3-4.5,4.3c-0.7,2.2-1.3,4.5-1.8,6.7c-0.5,2.1-0.7,4.2-1,5.7c-4-6.9,0.1-13.5,2.7-20.2c-0.5-0.1-1.1-0.3-1.6-0.4
		c-1.9,5-3.8,9.9-5.8,14.9c-0.1,0-0.3,0-0.4-0.1c0.2-1.6,0.3-3.3,0.6-5.7c-1.7,4.5-3.2,8.2-4.6,11.9c-0.3-0.1-0.6-0.2-1-0.3
		c0-3.2,0-6.4,0-9.6c-2.3,1.8-0.1,6.2-4.8,7.5c-0.5,1.3-1.3,3.5-2.4,6.2c-0.2-2.5-0.3-4.3-0.4-6c-0.3,0.1-0.7,0.1-1,0.2
		c-0.5,1.7-1.1,3.3-1.6,5c-0.1-1-0.2-1.9-0.3-2.9c-2.1,2-4.4,3.8-6.1,6.1c-1.5,2-2.4,4.5-3.5,6.8c-0.1-0.3-0.2-0.5-0.2-0.8
		c-0.3-1.2-0.7-2.5-1-3.7c-0.8,1.2-1.9,2.3-2.2,3.5c-1,4.4-1.7,8.9-2.5,13.4c-0.3-0.3-0.6-0.7-0.9-1c-1.1,0.4-2.1,0.8-3.5,1.4
		c-0.1,0.9-0.1,2.3-0.2,3.7c-0.1,0-0.3,0-0.4,0c-0.2-0.9-0.3-1.9-0.6-3.5c-0.9,1.9-1.5,3.3-2.1,4.6c0-3.2,0-6.4,0-9.7
		c-0.6-0.1-1.1-0.2-1.7-0.3c-1.3,3.1-2.6,6.2-3.9,9.3c-0.2,0-0.3,0-0.5,0c0-2.8,0-5.7,0-8.8c-0.3,0.7-0.6,1.3-0.9,2
		c-0.8-0.9-1.5-1.7-2.5-2.8c-0.7,2.2-1.3,4-2.1,6.2c-0.7-0.8-1.2-1.4-1.7-2c-0.2,0.1-0.3,0.2-0.5,0.3c0.8,1.6,1.5,3.2,2.6,5.6
		c-1.4-1-2.5-2-2.7-1.8c-2.1,1.8-4.2,3.7-6.2,5.5c0-0.1-0.4-1-0.9-2.3c-0.4,2.2-0.8,4.1-1.3,6.5c-0.6-1-0.9-1.6-1.3-2.1
		c-0.3,0-0.5,0.1-0.8,0.1c0.4,2.2,0.8,4.5,1.2,6.7c-0.2,0.1-0.3,0.1-0.5,0.2c-0.8-1.8-1.6-3.6-2.5-5.7c-0.8,2.6-1.6,5.1-2.5,8.1
		c-0.4-1.1-0.7-1.7-0.8-2.2c-3.5,7.2-7,14.4-11.1,22.7c0.3-3.4,0.2-5.9,0.8-8.2c1.9-7.1,3.8-14.3,6.3-21.3c1.3-3.5,2.4-7.2,6.7-9.2
		c2.3-1.1,3.4-4.8,5.3-7.1c5.6-6.9,12.6-11.9,21.3-15.6c-1.7,6.4-3.2,12-4.7,17.7c0.1,0,0.3,0.1,0.4,0.1c1.7-3.3,3.1-6.8,5.1-9.9
		c2.1-3.1,4.7-5.9,7.2-8.7c0.3-0.4,1.3-0.2,2.8-0.4c4.8-10.9,15.3-17.6,25.3-25c13.6-10,28.3-17.3,44.2-22.7
		c7.6-2.6,14.7-6.5,22-9.9c11.7-5.5,24.1-8.2,36.9-8.9c17.1-0.9,34.3-1.9,51.4-2.2c7.2-0.1,14.5,1.4,21.7,2.3
		c4.4,0.6,8.8,1.5,13.1,2.4c4.7,1,6.5,6,3.5,10.5c-2.8,4.1-5.4,8.6-9.2,11.8c-6,5-12.7,9.1-19.2,13.5c-0.5,0.3-1.3,0-2,0
		c2.1,3.3-2.4,5-2.8,7.7c-0.7,5.2-4.6,8-7.5,11.4c-5.3,6.2-12.5,10.1-20,13.3c-2.1,0.9-4.4,1.8-6.3,3c-6.7,4.3-13.1,9.3-20.1,13.1
		c-4.3,2.3-9.5,3-14.4,4.5c-1.8,0.5-3.5,1.2-5.1,2.6c2.2-0.3,4.4-0.6,6.9-1c-1.7,1.1-3,2-4.4,2.9c-6.4-0.9-12.6-0.9-18.3,3.1
		c6.1-1,12.2-2.1,18.2-3.1c3.2-0.7,6.4-1.5,9.6-2.2c0.1,0.3,0.1,0.7,0.2,1c-9.5,2-19.1,4-28.6,5.9c0,0.3,0,0.6,0,1
		c5.2-0.2,10.7,0.5,15.6-0.9c10.6-3,20.9-6.9,29.2-14.8c0.9-0.9,2.9-0.5,3.8-1.4c2.4-2.2,4.6-4.7,6.9-7.3c0.1,6.7-0.3,13.6-4.5,19.4
		c-5,6.9-10.8,13.3-15.7,20.3c-1.8,2.6-2.6,6.2-2.9,9.5c-0.7,7.2-3.5,13.2-7.8,19.1c3.5-2.7,6.9-5.4,11-8.5
		c-3.5,10.2-11.2,16.4-16.7,24.3c3.7-2.9,7.3-5.9,11.3-9c-0.9,14-7.5,24.2-19,31.6c0.5,0.2,1.1,0.3,1.6,0.5
		c-0.2,1.6,0.2,3.5-0.7,4.6c-2.6,3.4-5.7,6.4-8.6,9.6c-2.2,2.4-4.8,4.5-6.6,7.1c-6.5,10.3-15.8,17-26.4,22.5
		c-12.6,6.4-25,13.4-37.8,19.5c-11.3,5.5-23,10.4-34.7,15c-6.2,2.5-13,3.8-19.3,5.9c-9.1,3.1-18.1,6.5-27.1,9.8
		c-0.8,0.3-1.6,0.9-2.2,1.8c5.7-2,11.4-3.9,17.7-6.1c-0.4,1-0.7,1.5-1.3,2.9c7.5-2.8,14.4-5.3,21.2-7.8c0.2,0.2,0.3,0.5,0.5,0.7
		c-5,3.9-10,7.8-14.9,11.7c0,0.2,0,0.4,0,0.6c11.9-4.3,23.8-8.6,35.6-12.9c0.1,0.1,0.2,0.3,0.2,0.4c-8.2,5.1-16.3,10.3-24.5,15.4
		c0,0.2,0.1,0.3,0.1,0.5c8.9-2.9,17.7-5.8,25.9-8.5c-4,5.9-4.2,6.1-14.5,12.6c-5.7,3.6-11.5,7.1-17.4,10.7
		c9.8,3.5,17.4-0.3,24.5-6.2c0.2,0.3,0.5,0.7,0.7,1c-2.8,2.5-5.6,5.1-8.6,7.8c4.4,1.2,8.9,1.8,13,3.5c17.7,7.2,35.3,14.5,52.9,22
		c23.4,10.1,46.8,20.3,70.1,30.6c17.8,7.9,35.5,16.1,53.4,23.8c6.7,2.9,13.9,4.7,20.8,7.7c-3-0.6-6.2-0.9-9-2
		c-12.4-4.6-24.9-9.2-37.1-14.3c-15.4-6.5-30.6-13.7-45.9-20.4c-16.1-7-32.4-13.7-48.6-20.6c-2.8-1.2-5.6-2.6-8.4-3.8
		c-1-0.4-2.2-0.6-3.3-0.9c-1.6-0.5-3.4-0.7-4.8-1.5c-2.2-1.2-4-3.3-6.2-4.2c-15.1-5.9-30.3-11.6-45.5-17.2c-1.6-0.6-4.2-0.9-5.5,0
		c-14.6,9.6-31.6,12.4-47.8,17.4c-13.2,4-26.3,8.3-38.2,15.4c-0.9,0.5-1.7,1.2-3,2.1c9.4,2.7,18.3,5.1,26.7,7.5
		c-9.4,4.3-18.7-3.2-29-2.3c1.6,2.6,2.9,4.8,4.2,6.9c0,0,0.1,0,0.1,0c-0.6,0-1.1-0.1-1.7-0.1l0.1,0c-0.4,0.1-0.8,0.2-1.2,0.3
		c-1-3.5-3.6-3.6-6.9-3.1c0.8,7.5,1.5,14.8,2.5,22.2c0.1,0.9,1.3,2.2,2.1,2.4c1.7,0.4,3.5,0.1,6.3,0.1c1.2,0.9,3.5,2.7,5.6-1.2
		c0.3,0.4,0.5,0.9,1.3,2c0.2-2.2,0.2-3.5,0.4-5.4c0.4,1.1,0.5,1.5,0.9,2.6c0.5-1.3,1-2.3,1.4-3.3c0.2,0.1,0.4,0.1,0.6,0.2
		c-0.2,0.8-0.6,1.7-0.6,2.5c0.1,1.1,0.5,2.3,0.7,3.4c0.8-0.8,2.2-1.5,2.3-2.4c0.6-4.1,0.9-8.2,1.2-11.2c0.2,1.9,0.6,5,0.8,8.1
		c0.2,2.3,0.1,4.7,3.4,4.4c1.9-0.2,3.8-3.2,3.4-6c1.5,0.6,2.8,1,4.1,1.5c0.5-2.2,1-4.5,1.5-6.7c0.2,0,0.4,0,0.6,0c0,3.2,0,6.5,0,9.7
		c0.4,0.1,0.9,0.1,1.3,0.2c0.6-1.9,1-3.8,1.8-5.6c0.3-0.7,1.3-1,2.3-1.7c-0.3-1.2-0.9-3.5-1.5-5.9c0.2,0,0.3-0.1,0.5-0.1
		c1,1.9,2,3.9,3.5,6.7c0.7-3.3,1.1-5.7,1.6-8.2c0.2,0.9,0.3,1.8,0.5,2.9c0.5-0.7,0.8-1.1,1.4-1.9c0.4,1.1,0.8,2,0.9,2.3
		c1.3-3,2.6-6.4,4-9.7c0.3,2.3,0.6,4.7,1,6.9c3.3-4.6,3.5-6.5,1-9.3c-0.7,0.8-1.4,1.7-2.1,2.5c-0.3-1.2-0.8-2.4-0.8-3.7
		c0-3,0.2-5.9,0.3-8.3c1.1,0.4,2.8,0.9,4.8,1.6c0.3,5.1,0.7,11.3,1.1,17.5c0.3,0,0.6,0,1,0c0.5-1.6,0.9-3.3,1.6-5.6
		c0.3,2.2,0.5,3.7,0.7,5.9c0.7-1,1.1-1.5,1.9-2.6c0.3,1.9,0.6,3.4,1,5.5c0.5-1.4,0.8-2.2,1.1-3c-0.4,8.8,2.8,17.6-0.8,26.4
		c-0.9,2.3,1.4,6,2.2,9.1c0.4,0,0.7,0,1.1-0.1c0.5-2.1,1.1-4.3,1.6-6.5c0.1,0,0.6-0.1,1.1-0.1c-0.6-1.8-1.1-3.5-1.7-5.3
		c-0.6-1.8-1.8-3.6-1.7-5.3c0.6-6.3,1.7-12.5,2.6-18.7c-0.4,0-0.7,0-1.1,0.1c0.9,4.2,1.9,8.4,2.8,12.6c-1.2,3.4-2.9,6.8-1.2,10.9
		c0.7-1.9,1.2-3.2,1.7-4.5l-0.1-0.1c0.3,1.6,0.5,3.2,0.8,4.9c0.2,0,0.4,0,0.5,0c0.5-2,0.9-4,1.4-6.3c1.2,1.1,2.3,2.2,3.3,3
		c1.7-3.2,3.5-6.5,5.4-10.2c0.3,1.2,0.5,2,0.7,2.9c1,4.1,1.7,4.2,5.2,1.5c1.8-1.4,3.9-2.5,5.9-3.8c-0.2,1-0.4,2.2-0.7,3.4
		c0.2,0.1,0.4,0.3,0.5,0.4c1.2-1.7,2.4-3.4,3.7-5.2c0.4,0.4,0.9,0.7,1.3,1.1c-4.2,6-8.5,12-12.4,17.6c0.6,2.1,1.3,4.2,1.9,6.2
		c0,0-0.1-0.1-0.1-0.1c-4,0.9-8,1.7-12,2.6c-0.6,0.1-1.3,0.2-1.7,0.6c-7.2,6.5-16.4,9.4-25,13.3c-7.2,3.2-14.5,6.2-21.7,9.4
		c-10.5,4.7-21.7,6-33,6.5c-17.2,0.7-33.9,3.2-49.3,11.5c-7.8,4.2-13,10.8-16.7,18.4c-1.8,3.8-1.8,8.7,1.1,12.6
		c2.5,3.3,5.2,6.4,7.8,9.6c0.4-0.3,0.8-0.6,1.2-0.9c-0.8-1-1.7-2-2.5-3c-8.1-9.3-6.2-22.3,4-29.3c6.5-4.5,13.6-7.1,21.4-7.7
		c4.1-0.3,8,0.2,11.2,3.7c5.9,6.4,7.8,14,6.8,22.4c-0.2,1.8-0.5,3.5-1,5.3c-1.5,5.3-8.2,10-15,10.5c-1.2,0.1-2.4,0.2-3.6,0.3
		c0,0.3,0.1,0.7,0.1,1c3.7-0.5,7.3-1.1,11-1.5c5.8-0.6,11.6-1.1,17.3-1.8c1.9-0.2,3.7-1,5.6-1.3c3.1-0.5,6.3-0.9,9.4-1.3
		c2-0.3,4.1-0.1,5.9-0.8c5-1.7,9.6-4.6,14.5-6.9c0.2,0.8,0.4,1.5,0.5,2c2.6-0.9,5-1.8,8-2.8c0.2,0.3,0.9,1,1.7,2
		c0.2-1.1,0.3-2,0.4-2.6c2.7-2.1,7.3,2.2,8.7-3.3c0.1-0.2,1.5-0.5,1.5-0.3c0.5,1.1,0.9,2.2,1.4,3.6c0.4-1.5,0.9-3,1.1-3.9
		c1,1.1,2.4,2.6,3.9,4.3c1-1.6,1.6-2.6,2.3-3.7c1.4,2.4,3.4,3.2,6,2.5c1.9-0.5,4.4,2,5.8-1c0.2,0.2,0.4,0.3,0.6,0.5
		c4,3,6.8,0.3,9.9-1.9c0.5-0.3,1.4-0.1,2.3-0.2c-0.2,1.6-0.3,2.8-0.5,4.1c1.4,0.4,2.8,0.8,4.1,1.2c1.1-1.3,2.2-2.5,3.2-3.7
		c0.2,0.2,0.5,0.3,0.7,0.5c-0.3,1-0.6,2-0.9,3c0.2,0.2,0.5,0.5,0.7,0.7c0.8-1.4,1.5-2.7,2.3-4.1c0.4,0.3,0.8,0.5,1.3,0.8
		c0,2.2,0,4.4,0,6.4c5.1-1.5,5.1-1.5,4.6,0.8c5.8-0.4,7.6-6,12.6-9c-1.8,2.4-3.1,4-4.3,5.8c-0.5,0.8-0.6,1.8-0.9,2.6
		c1,0.1,1.9,0.2,3.1,0.4c-0.7,0.6-1.5,1.2-2.1,2c-0.6,0.7-1.1,1.5-1.6,2.2c1,0.6,2,1.7,3.1,1.8c2,0.2,4.1-0.1,6.2-0.2
		c3.2-0.2,6.4-0.4,9.7-0.6c0.1,0.4,0.1,0.8,0.2,1.1c-0.9,0.4-1.8,0.7-3.2,1.3c1,0.7,1.5,1.3,2.2,1.5c11.6,4,23,8.5,34.8,11.7
		c7.5,2.1,15.4,2.4,23.1,3.4c7.3,0.9,14.6,2.4,21.9,2.4c6.1,0,12.1-1.8,18.2-2.7c-2.9,1.2-5.7,2.9-8.7,3.4c-4.6,0.9-9.4,1-14.1,1.5
		c0,0.2,0,0.3,0,0.5c1.4,0.2,2.8,0.3,5.2,0.6c-5.9,0.7-10.9-0.1-15.7,1.8c-1.8,0.7-4.2-2.3-6.1,0.6c-0.4,0.6-1.8,0.6-2.8,0.9
		c0.1,0.4,0.1,0.9,0.2,1.3c7.6,2.3,15.3,0.4,24.1,0.7c-1.5-0.9-1.9-1.1-2.4-1.3c0.1-0.1,0.2-0.2,0.3-0.3c0.1,0.3,0.2,0.7,0.3,1
		c5-1.7,9.9-3.5,14.9-5c2.8-0.8,5.8-1.3,8.8-1.4c4-0.2,6-2.6,7.7-5.7c9.3-5.2,15.8-12.8,19.8-22.7c0.9-2.1,2.2-4,3.4-6
		c0.4,0.1,0.8,0.2,1.2,0.4c-0.5,1.8-0.8,3.6-1.5,5.3c-0.7,1.5-3.8,2.5-0.3,4.4c0.2,0.1-1,4.3-2.5,5.8c-2.1,2.2-1.6,3.5,0.3,5l0,0.1
		c-1.3,0.5-2.6,1.1-4,1.6c-1.5,0.6-3,1.2-4.4,1.7c2,6.4,7.3,2.7,10.6,4.8c0.7,0.4,1.5,0.7,2.2,1.1c-0.8,0.6-1.6,1.6-2.4,1.7
		c-2.2,0.1-4.5-0.1-6.7-0.3c-1.4-0.2-2.9-0.5-4.3-0.7c-2-1.8-5.5-0.4-7.4,3.3c1.2,0,2.1,0,3.1,0c-0.6,1.2-1.2,2.3-1.8,3.4
		c2.4-0.6,4.8-1.2,7.1-1.8c0.6,2.8,1.9,2.9,4.8,0.7c0.6,0.4,1,1.1,1.5,1.2c2.8,0.3,5.7,0.3,8.5,0.8c0.4,0.1,0.6,2,0.7,2.4
		c3.9,0,8.1,0,12.6,0c0,1.3,0,2.7,0,4.7c-10.3-1.4-20.4-2.7-30.4-4c-6.5-0.8-13.1-1.8-19.6-2.4c-1.5-0.1-3.2,0.6-4.7,1.2
		c-13.6,5.8-27.7,7.8-42.4,5.2c-23.3-4.1-44.5-13.4-64.8-25c-11.5-6.5-23.6-10.4-36.6-12.4c-12.8-2-25.6-2.6-38.5-1.3
		c-0.7,0.1-1.5,0.5-1.8,0.6c-0.7,6.6-0.6,13.2-2.4,19.2c-1.4,4.7-4.7,9.2-8.1,12.9c-3.4,3.6-8.4,5-13.3,3.2c-2.8-1-4.8-0.3-6.4,1.6
		c-4.7,5.5-11,7-17.8,7c-5.9,0.1-11.1-4.9-11.1-10.8c0-6.1,0-12.3,0-18.4c0-1.5-0.2-3-0.4-4.8c-4.8,0.6-9.2,1.9-13.5,1.5
		c-5.5-0.5-8.5,1.6-12,5.4c-5.7,6.1-10.8,13.2-19,16.5c-6.2,2.5-12.4,4.6-19.6,2.9c-4.9,8.3-9.8,16.5-14.5,24.9
		c-2.7,4.7-6,8.1-11,10.9c-7.1,3.9-13.2,9.6-19.7,14.6c-4.3,3.4-8.3,7.1-12.7,10.4c-1.7,1.3-3.8,1.9-6.2,2.1c2-2.3,4-4.6,6.7-7.7
		c-2.9,1.1-4.8,1.8-7.4,2.9c13-18.2,25.3-35.6,37.7-53c0.6-0.9,1.7-1.4,2.5-2.1c-0.8,1.9-1.2,4-2.4,5.6c-2.4,3.5-5.3,6.6-7.8,10
		c-1.3,1.7-2.2,3.7-3.5,5.5c-3.6,5-7.3,9.9-11,14.9c0.4,0.3,0.9,0.7,1.3,1c5.1-2.4,5.3-9.7,11.5-12.5c-1,3.7-1.7,6.6-2.6,10.1
		c1.2-0.7,2.4-1.1,3.2-1.9c3.1-3.3,6-6.7,9-10c0.2,0.2,0.4,0.5,0.6,0.7c-1.1,2.5-2.3,5.1-3.4,7.6c1.4-0.3,2.5-1.1,3.2-2.1
		c4.1-6.2,8.1-12.5,12.1-18.8c0.3-0.8,0.5-1.6,0.8-2.4c0,0-0.1-0.2-0.1-0.2c0-0.5,0-0.9,0-1.4c-0.2-0.2-0.4-0.4-0.6-0.6
		c1.2-1.6,2.1-3.5,3.6-4.8c8.1-7.3,12.3-17.3,18.1-26.2c3.4-5.2,3.4-12.2,8.3-16.8c0.3-0.2,0-1,0.1-1.5c0.8-2.6,0.8-6.2,2.5-7.7
		c4-3.5,1.7-8.7,4.8-12.2c-1,0.2-1.9,0.4-2.3,1c-2,3-2.9,7.2-7.9,6.6c-0.2,0-0.5,0.5-0.7,0.8c-3.2,4.9-6.6,9.8-9.6,14.8
		c-3.3,5.5-6.2,11.3-9.4,16.9c-0.8,1.4-1.9,2.7-3,4c-1.3,1.5-2.7,2.9-4,4.4c-1.8,2.1-3.5,4.2-5.3,6.3c1.9-3.2,3.7-6.5,5.6-9.7
		c6.7-11.2,13.5-22.5,19.9-33c-4.4,0.8-9.2,2-14,2.4c-8.7,0.8-17.4-11.1-12.1-19.2c1.9-2.9,3-6.4,5-9.3c5.3-7.8,6.4-16.8,7.9-25.7
		c2.2-13.1,6.5-25.2,17.2-34.1c1.9-1.6,3.6-3.4,5.5-5c6.4-5.5,12.7-11.1,19.2-16.5c0.4-0.3,1.3,0.2,2,0.3c-2.4,2.3-4.8,4.7-7.3,6.9
		c-5.5,5-11.2,9.8-16.7,14.8c-0.8,0.7-0.8,2.3-1.2,3.6c-0.8,0.3-2.5,0.4-3.3,1.3c-4.4,5.3-8.8,10.5-10.1,17.7
		c-0.8,4.2-2.3,8.2-3.1,12.4c-0.3,1.4,0.4,3,0.8,4.5c1,3.6,3.4,6.5,2.6,10.9c-1.6,9.5-7.3,16.5-13.3,23.4c-0.8,0.9-2.1,2-2.1,3
		c0,1.7,0.9,3.4,1.4,5c0.4-0.1,0.8-0.1,1.1-0.2c0.2-0.6,0.4-1.2,0.7-1.9c0.8,0.6,1.7,1.2,3,2.2c-0.5-1.4-0.7-2.1-0.9-2.5
		c1.7,0,3.8,0.6,5-0.1c2.9-1.9,5.9-1.2,8.9-1c2.5,0.1,5.1,0.3,7.6,0.5c0-0.3,0-0.5,0.1-0.8c-1.8-0.1-3.6-0.2-5.4-0.3
		c0-0.2,0-0.4,0-0.6c1.5-0.1,2.9-0.1,4.4-0.2c-0.7,0.7-1.5,1.4-2.2,2c-0.8-1.3-1.5-2.6-2.3-4c0.5-0.4,1-0.8,1.5-1.1
		c2.1-0.4,4.1-0.8,6.2-1.2c-0.3-0.3-0.6-0.5-0.8-0.8c1.4-1.4,2.8-2.9,4.1-4.3c0.6,0.2,1.2,0.4,2,0.7c-0.3-0.9-0.5-1.5-0.7-2.1
		c3.3-3.5,7.1-6.8,6-12.5c1.4,0.2,2.5,0.3,4.2,0.5c-0.2-2.4-0.4-4.4-0.6-7c1.4,1.7,2.5,3.1,4,4.9c-1.1-3.8-2-7-2.9-10.2
		c0.2-0.2,0.4-0.4,0.6-0.6c1-0.2,2.1-0.5,2.3-0.5c0-1.9-0.3-3.6,0.1-5.2c0.4-1.9,1.8-3.6,1.9-5.5c0.2-3.4-0.2-6.9-0.4-10.4
		c0.3-0.2,0.5-0.4,0.8-0.6c0.3-0.4,0.6-0.8,0.9-1.2l0.1,0.1c-0.2-0.4-0.3-0.9-0.5-1.3l0.2,0.2c0,0,0.2-0.2,0.2-0.2
		c0.4,0.1,0.8,0.1,1.3,0.2l0,0.1c1.6,0.5,3.3,1,4.6,1.4c0.5-1.9,1.1-4.1,2-7.3c2,3.3,3.5,5.7,5,8.2c1.7-2.6,5.3-3.6,5.3-7.3
		c0-0.4,1.2-0.7,1.8-1.1c0.5-0.3,1.3-0.6,1.6-1c5.6-8.5,11.3-17,16.6-25.7c4-6.5,7.5-13.3,11.3-20c-3.8-1.2-1.7-4-2.2-6
		c0.7,0.3,1.4,0.6,2.2,0.8c0.3,0,0.5,0,0.8-0.1c0-0.3,0-0.6,0-0.9c-1.6,0-3.2-0.1-4.7-0.1l-0.1,0.2c-0.4,0-0.8,0-1.2,0.1
		c-0.2-5.5,4.7-3.1,7.2-4.5c-3.9-5.1-8-8.5-14.5-4.2c1.1-0.9,2.2-1.8,3.3-2.8c-4.4-0.3-6.1,2.5-7.5,6.1c-0.3-0.8-0.5-1.4-0.8-2.1
		c-1.3,1-2.7,1.9-3.8,3c-3.2,3.4-6.1,7.2-9.4,10.5c-5,5-10.3,9.6-15.5,14.4c0.6-1.3,0.9-2.9,1.9-3.9c5.7-6.2,11.9-12,17.3-18.4
		c6.6-7.8,14.2-13.3,24.5-14.3c0.9-0.1,1.7-0.4,2.8-0.6c0-9.2,0.5-18.3-0.2-27.3c-0.5-5.9-3.2-11.5-4.1-17.4
		c-1.3-8-1.8-16.1-2.7-24.2c0.4,0,0.8-0.1,1.2-0.1c0.5,4.5,1.1,8.9,1.6,13.4c3-10-0.2-19.6-0.4-29.5c1.7,7.6,3.3,15.3,5,22.9
		c0.4-0.1,0.8-0.1,1.2-0.2c0-6.2,0-12.4,0-18.7c0.4,0,0.8,0,1.2,0c0,8.8,0,17.5,0,26.3c0.7,0,1.5-0.1,2.2-0.1
		c-0.2-4.9-0.4-9.8-0.7-14.7c0.4-0.1,0.7-0.3,1.1-0.4c0.4,0.7,1.1,1.3,1.2,2c0.8,5.1,1.3,10.3,2.3,15.3c1,4.9,2.5,9.7,4.6,14.4
		c0.1-2.1,0.3-4.1,0.4-6C207.8,403.5,208.5,404.4,209.2,405.2c0.4,7.6,0.7,15.2,1,22.8c0.2-3.2,4.6-5.7,1.7-9.4
		c-0.2,0.9-0.3,1.7-0.5,2.7C210.6,415.8,209.9,410.5,209.2,405.2z M350.1,261.6l0.1,0.4c-3.5,4-6.9,7.9-10.4,11.9
		c-1.5,1.7-3.2,3.4-4.8,5.1c-2.6,2.7-5.4,5.2-7.7,8c-4.5,5.7-8.6,11.7-13.2,17.4c-6.9,8.6-14.2,16.9-20.9,25.5
		c-6.2,8-11.7,16.5-18,24.4c-6.2,7.7-10.7,16.5-17,24.3c-7.6,9.3-12.7,20.6-19,31.1c-0.6,1-1.7,1.8-2.5,2.7c-0.6,0.7-1.2,1.3-1.8,2
		c-0.8,1-1.8,1.9-2.5,2.9c-5,7.8-9.8,15.7-14.9,23.3c-7.8,11.6-15.8,23.1-23.7,34.7c-1.9,2.8-3.6,5.7-5.8,8.2
		c-4.6,5.5-7.7,11.7-9.6,18.5c0,0-0.2-0.1-0.2-0.1c0.1,0.5,0.1,1.1,0.2,1.6c-0.6,1-1.2,2-1.9,2.9c-1.4,2.2-3,4.3-4.3,6.6
		c-1.2,2.2-1.9,4.6-3.1,6.7c-2.7,4.6-5.7,9-8.3,13.5c-2.6,4.4-4.8,8.9-7.4,13.2c-4,6.7-8.3,13.3-12.4,19.9c1.3-0.1,2.3-0.2,3.3-0.3
		c-0.5,1.2-0.9,2.4-1.4,3.6c0.4,0.2,0.8,0.3,1.1,0.5c2-4.5,4-9,6-13.4c10.4-17.7,20.9-35.3,31.3-53c7.2-12.2,14.3-24.6,21.5-36.8
		c1.3-2.1,3.1-3.9,4.4-6c4.5-7.1,8.8-14.3,13.3-21.3c5.1-7.9,10.3-15.7,15.4-23.5c0.5-0.6,1-1.2,1.5-1.8c1.3-1.4,2.7-2.7,3.8-4.3
		c2.1-3.2,3.9-6.6,6.1-9.7c8.4-12.1,16.7-24.3,25.3-36.3c10.3-14.6,20.3-29.6,31.4-43.6c14.6-18.5,30.1-36.2,45.2-54.3
		c0.8-1,1.2-2.4,1.7-3.6c0-0.3,0-0.5,0.1-0.8c0.5-0.5,1-1,1.5-1.5c0,0,0,0,0,0c0.3-0.3,0.6-0.5,0.9-0.8c0.2-0.3,0.4-0.6,0.7-0.9
		c0.2-0.1,0.4-0.2,0.6-0.4c-0.1-0.1-0.3-0.1-0.4-0.2c0,0.2,0,0.4,0,0.7c-0.2,0.3-0.4,0.6-0.7,0.9c-0.5-0.1-0.9-0.1-1.4-0.2
		c0,0,0-0.1,0-0.1c-0.7,0.6-1.3,1.2-2,1.8L350.1,261.6z M360.4,253.3c0.3,0,0.5,0,0.8,0c1.3-1.3,2.6-2.6,3.9-3.9
		c0.9-1,1.8-1.9,2.7-2.9c-0.3-0.2-0.5-0.4-0.8-0.7c-0.9,0.9-1.8,1.9-2.7,2.8C363,250.2,361.7,251.7,360.4,253.3z M124.7,615.5
		c-0.7,1.3-1.5,2.6-2.2,4c-1.1,1.6-2.1,3.1-3.2,4.7c-0.7,0.9-1.4,1.9-2.2,3c3.1,1.5,6,2.9,8.8,4.3c0.2-0.3,0.3-0.6,0.5-0.9
		c-0.6-0.5-1.2-1-2-1.6c1-0.1,1.8-0.3,2.5-0.4c-1.2-0.7-2.5-1.4-3.8-2.2c2.8,0.2,5.5,0.5,8.3,0.7c0-0.3,0.1-0.7,0.1-1
		c-2.3-0.7-4.6-1.4-6.9-2.1c0.1-0.2,0.1-0.4,0.2-0.5c1.7,0.3,3.4,0.6,6,1c-1.6-1.2-2.3-1.8-3-2.4c1.1-0.1,2.1-0.2,3.9-0.3
		c-1.7-0.9-2.7-1.5-4.1-2.3c3,0.3,5.3,0.5,7.4,0.7c-2.2-1-4.3-2-6.5-3c3,0.5,5.9,0.9,8.9,1.4c0-0.2,0-0.4,0-0.7
		c-4.1-1.5-8.2-3.1-12.6-4.8C124.7,613.8,124.7,614.7,124.7,615.5z M105.5,555.4c0.2-1.1,0.6-2.2,0.6-3.3c0-0.2-2.1-0.7-2.1-0.6
		c-0.8,1.5-1.3,3-1.9,4.6c-0.8,1.3-1.8,2.4-2.5,3.8c-3,6.2-5.8,12.4-9.1,19.3c1.4-0.3,2.9-0.2,3.4-0.9c1.6-2.2,2.9-4.6,4.1-7
		c1.7-3.5,3-7.1,4.7-10.6C103.5,558.9,106.8,558.5,105.5,555.4z M179.2,600.6c0-6.3,0.6-11.8-0.1-17.1c-1.2-9.2-6.8-13-16.1-11.8
		c-1.9,0.3-3.9,0.5-5.8,0.8c-6.7,0.9-12.8,3.7-17.3,8.4c-6.5,6.8-3.4,20.8,4.9,25.6c3.9,2.2,7.6,1.8,11.6,0.8
		c6.1-1.5,12.3-2.7,19.3-4.2c-7.2-5.6-10-14.3-6.8-20.2c1.3-2.5,2.9-5.4,7.8-4.7c-6.8,3.4-8.8,8.4-7.9,14.4
		C169.6,597.7,175,597.7,179.2,600.6z M205.8,516.8c4,5.1,5.9,11.2,5,18c-0.1,0.5,0.4,1.6,0.7,1.7c2.2,0.5,4.8,1.6,6.6,0.9
		c2.9-1.2,5.6-0.5,7.7,0.4c2.8,1.2,3.2-0.5,3.9-1.2c0.8,0.7,1.7,1.3,2.6,2c0.6-1,1.3-1.9,1.8-2.8c0.3,0.8,0.8,1.8,1.4,3.4
		c0.3-1.4,0.5-2.2,0.7-3.3c0.4,0.9,0.6,1.6,0.9,2.4c0.6-1.1,1.1-1.8,1.6-2.7c0.6,0.7,1.1,1.1,1.6,1.7c0.2-1.2,0.3-2,0.5-3
		c0.4,0.5,0.7,0.9,1.5,2c0.5-2.5,0.9-4.4,1.2-6.4c0.2-2,0.3-4,0.4-6.1c0.2,0,0.5,0,0.7,0c0,4.1,0,8.2,0,12.4
		c0.4,0.1,0.7,0.2,1.1,0.3c1-1.8,1.9-3.7,2.6-5.1c0-0.1,0.1,0.4,0.3,1c0.4,0.1,0.7,0.2,1.1,0.3c0.9-2.2,1.8-4.5,2.5-6.3
		c0.4-0.2,0.8-0.3,0.9-0.5c0.5-2.5,1.2-5.1,1.3-7.6c0-1.6-0.5-3.8-1.6-4.6c-1.2-0.9-2.5-0.9-2.1-2.9c0.1-0.6-0.7-2-1.4-2.2
		c-0.6-0.2-1.6,0.6-2.4,1.1c-1.2,0.7-2.4,1.5-3.5,2.3c-0.1-0.2-0.1-0.4-0.2-0.6c-0.4,0.8-0.9,1.6-1.3,2.4c-1.2-1.1-2.3-2.1-3.5-3.2
		c-0.3,1-0.7,2.3-1.2,3.7c-0.7-1.2-1.3-2.3-1.9-3.3c-0.3,0.1-0.5,0.1-0.8,0.2c0.1,1.3,0.2,2.6,0.2,3.7c-2.8-1.7-5.5-3.6-9.3-3.1
		c-4.2,0.6-8.5,0.7-13.6,1c-1.7-1.8-2.6-1.9-4.2,0c-3.2-1-6.1-2-9-3c-0.2,0.4-0.5,0.8-0.7,1.2C202,511.1,200.2,518,205.8,516.8z
		 M192,512.7c-0.1,0.9,0.1,1.5-0.2,1.8c-4.5,4.9-8.8,10.1-14.3,13.9c-1.7,1.1-3.5,2-5,3.3c-5,4.3-5.9,11-9,16.4
		c-1.4,2.5-3.2,5-1.1,7.8c1.9-0.5,3.8-0.9,5.9-1.4c0.5-1.3,1.2-3,1.8-4.6c1.9,0.3,3.2,0.5,4.5,0.7c-0.3-1.2-0.5-2.1-0.8-3.1
		c1.4,0.3,2.4,0.5,3.6,0.8c-0.3-1-0.4-1.7-0.5-1.8c2-0.8,3.7-1.5,5.3-2.2c1.6-0.7,3.1-1.6,4.7-2.3c3.5-1.3,7.8-1.1,9.5-5.5
		c0.2,0.3,0.5,0.7,0.7,1.1c2.6-1.9-0.4-3.7-0.2-6.1c1.2,0.3,2.2,0.6,3.2,0.9C202.9,526.8,198.9,516.6,192,512.7z M197.9,617.6
		c3.7,1.8,6.3,0.7,8.6-3c-8.4-0.4-16.4-0.8-23.8-1.2c0.2,2.7,0.4,5.9,0.5,9.2c0.1,2.4-0.5,4.9,0.2,7.1c1.6,4.8-1,7.6-3.8,10.4
		c0.4,1.2,0.8,2.3,1.2,3.5c0.5-1,0.9-1.7,1.3-2.5c0.1,0.3,0.2,0.6,0.4,0.9c0.8-0.2,2.1-0.9,2.5-0.6c1.7,1.4,2.8,0.1,3.1-1
		c0.8-3.6,3.4-3.3,6.3-3c-0.8-1.5-1.4-2.7-2.2-4.3c1.4,0.5,2.3,0.8,3.6,1.3c-1-1.4-1.8-2.5-2.5-3.5c1.5-0.6,2.9-1.2,4.5-1.9
		c-1.3-1.5-2.2-2.6-3.2-3.9c1.4,0.4,2.6,0.7,3.4,1c-0.1-1.8-0.2-3.4-0.3-5.2c1.5,0.4,2.6,0.8,4.4,1.3
		C200.4,620.2,199.1,618.9,197.9,617.6z M391.3,256.2c17.3,0.8,38-9.3,45.1-16.5C421.5,245.1,406.6,250.6,391.3,256.2z M368.6,242.8
		c0.5,0.6,1.1,1.1,1.6,1.7c11.5-11,23-22,34.5-33c-0.3-0.3-0.5-0.6-0.8-0.9C392.2,221.3,380.4,232,368.6,242.8z M177.5,637.8
		c3.1-1.1,4-3,3.5-5.9c-0.6-3.7-0.7-7.5-1.1-12c-0.3,1.6-0.4,2.4-0.6,3.6c-0.5-3.2-1-5.8-1.5-8.9C176,618.4,175.2,624.6,177.5,637.8
		z M404.5,280.4c-13.7,4-26.8,7.9-40,11.8C378.3,290.2,392,288.1,404.5,280.4z M349.9,331.2c0.1,0.3,0.3,0.6,0.4,0.9
		c6.1-2.2,12.2-4.5,18.3-6.7c-0.1-0.3-0.2-0.6-0.3-0.8c-8.7,1.9-17.4,3.8-26.1,5.8c0.1,0.4,0.2,0.8,0.3,1.2c2.9-0.6,5.8-1.2,9.8-2.1
		C350.8,330.6,350.4,330.9,349.9,331.2z M524.7,143c-9.7,0.3-16.7,6.6-25.1,9C508.2,150.3,517,149,524.7,143z M279.7,435.7
		c-0.2-0.4-0.3-0.8-0.5-1.2c-11.4,3.6-22.8,7.2-34.1,10.8C257,443.3,268.5,439.9,279.7,435.7z M350.9,337.3c0.1,0.3,0.2,0.7,0.3,1
		c9.8-2.9,19.6-5.7,29.3-8.6c-0.2-0.5-0.3-1.1-0.5-1.6C370.3,331.2,360.6,334.2,350.9,337.3z M206,434.1c-1.1-0.9-1.6-1.5-2.2-1.8
		c-0.9-0.6-1.9-1.2-2.9-1.8c-0.3,1-0.8,2.1-0.9,3.1c-0.2,2.8-0.3,5.7-0.3,8.5c0,1.7,0.4,3.5,0.6,5.2
		C202.2,442.7,197.8,436.5,206,434.1z M385.1,318.9c-0.1-0.5-0.2-1-0.4-1.5c-6.4,1.6-12.9,3.3-19.3,4.9c0.1,0.4,0.2,0.9,0.3,1.3
		C372.2,322,378.6,320.5,385.1,318.9z M393.6,274.9c-7.8-1.7-7.8-1.7-10.5-0.5c-0.1,0.9-0.1,1.6-0.1,2.4
		C386.3,276.3,389.8,275.6,393.6,274.9z M289.3,435.8c-0.2-0.5-0.3-1-0.5-1.5c-6.9,2.6-13.8,5.2-20.7,7.8c0.1,0.3,0.2,0.5,0.3,0.8
		C275.3,440.5,282.3,438.2,289.3,435.8z M364.6,355.1c0.3,0.3,0.5,0.7,0.8,1c4.3-3.1,8.5-6.2,12.8-9.3c-0.3-0.4-0.6-0.8-0.9-1.3
		C373,348.7,368.8,351.9,364.6,355.1z M208.1,440.7c0,0,0.1,0,0.1,0c0.1-1.9,0.2-3.7,0.3-6c0.4,0.5,0.7,0.7,0.8,1
		c0.1,0.1,0.1,0.3,0.1,0.4c0,0.1,0.2,0.1,0.3,0.2c0.3-2,0.6-3.9,0.7-5.1c-0.9-2.6-1.7-4.9-2.4-6.9
		C208.1,429.5,208.1,435.1,208.1,440.7z M148.1,566.2c0.3,0.2,0.5,0.4,0.8,0.5c2.7-5.3,5.4-10.6,8.2-15.9c-1.4,0.7-2.2,1.8-2.8,2.9
		C152.2,557.8,150.2,562,148.1,566.2z M125,632.6c-2-0.9-3.8-1.6-5.4-2.5c-3.2-1.8-3.1-1.9-4.1,0.7
		C118.6,631.2,120.8,635.9,125,632.6z M363.4,360.6c0.3,0.4,0.6,0.9,0.9,1.3c3.9-2.7,7.7-5.4,11.6-8.1c-0.2-0.3-0.4-0.6-0.7-1
		C371.2,355.4,367.3,358,363.4,360.6z M348.8,629.6c-1.2-3.5-3.1-5.9-6.9-4.9c-0.2,0.4-0.4,0.9-0.6,1.3
		C343.7,627.2,346.3,628.4,348.8,629.6z M335.9,318.1c0,0.4,0,0.9,0,1.3c4.5-0.8,9-1.7,13.5-2.5c-0.1-0.3-0.1-0.7-0.2-1
		C344.7,316.6,340.3,317.4,335.9,318.1z M329,375.4c-0.1-0.4-0.2-0.8-0.4-1.2c-4.2,1.4-8.4,2.8-12.6,4.2c0.1,0.4,0.3,0.8,0.4,1.3
		C320.6,378.3,324.8,376.8,329,375.4z M341.2,370.1c0.1,0.3,0.3,0.6,0.4,0.9c4.6-2.2,9.2-4.3,13.9-6.5c-0.1-0.3-0.3-0.6-0.4-0.9
		C350.4,365.8,345.8,367.9,341.2,370.1z M197.4,397.2c-0.4,0.1-0.8,0.1-1.2,0.2c0.7,3.8,1.4,7.6,2.1,11.4c0.4-0.1,0.8-0.1,1.2-0.2
		C198.8,404.7,198.1,400.9,197.4,397.2z M195,430.7c-0.2,0-0.4-0.1-0.5-0.1c0,3-0.1,6.1,0,9.1c0.2,3.1,0.6,6.1,0.9,9.2
		c0.2,0,0.4,0,0.5-0.1C195.6,442.8,195.3,436.8,195,430.7z M346.7,343.9c-0.1-0.3-0.1-0.5-0.2-0.8c-3.3,0.7-6.6,1.3-9.9,2
		c0.1,0.4,0.2,0.9,0.3,1.3C340.2,345.6,343.4,344.8,346.7,343.9z M499.4,146.3c0,0.1,0,0.2,0.1,0.2c0.1,0,0.2,0,0.3,0.1
		c0-0.1-0.1-0.3-0.1-0.4C499.6,146.3,499.5,146.3,499.4,146.3z"/>
	<path d="M546.3,669.4c1.7,0.8,3.4,1.6,4.9,2.5c1.4,0.8,2.7,1.9,4,2.8c-0.1,0.6-0.2,1.1-0.2,1.7c0.3,0.2,0.5,0.5,0.8,0.7
		c0.6-0.3,1.3-0.7,1.9-1c0.8,0.9,1.5,1.9,2.4,2.6c3.2,2.6,6.5,5.2,9.8,7.7c-0.2,0.4-0.5,0.7-0.7,1.1c-1.6-0.9-3.4-1.6-4.9-2.6
		c-19.9-13.4-42.3-21.5-64.3-30.4c-6.5-2.6-12.7-5.3-16.4-11.7c-0.5-0.9-2-1.5-3.2-1.7c-4.6-0.9-9.1-1.7-14.7-2.7
		c1.2-1.1,1.8-2.1,2.3-2.1c3.3,0.1,7.5-0.6,9.8,1.1c3.2,2.3,7.3,1.7,10.1,4.7c2.7-4,5.1-7.7,7.5-11.4c0.1,0.1,0.2,0.2,0.3,0.2
		c-2.1,4.4-4.2,8.8-6.4,13.3c2.5,0.7,6.4-1,5.9,3.9c0,0.4,1.9,1.1,3,1.5c9.9,3.6,19.9,6.9,29.8,10.7c3,1.2,5.5,3.5,8.3,5.3
		c0.2,0.2,0.4,0.3,0.6,0.5c1.8,0.9,3.7,1.7,5.5,2.6c0,0.2,0,0.3,0,0.5c0.6,0,1.1,0,1.7,0l-0.1,0.1c0.3-0.1,0.6-0.2,0.8-0.3
		c0.3,0.1,0.6,0.2,0.8,0.2C545.9,669.3,546.1,669.3,546.3,669.4z"/>
	<path d="M223.7,308.7c0.8-8.1,1.6-16.1,2.3-24.2c0.3,0,0.5,0,0.8,0c0.2,0.9,0.5,1.9,0.7,2.9c0.3-0.3,0.5-0.3,0.5-0.4
		c0.5-11.4,7.9-20.7,10.1-31.6c0.8-4.1,1.7-8.1,2.9-12.2c1,7.7,4,14.9,2.8,23.2c-0.9,6.3,0.2,12.9,0.4,19.4c0,1.1,0,2.3-0.4,3.4
		c-0.5-8.6-1-17.3-1.5-25.9c-0.4,0-0.8-0.1-1.2-0.1c-0.4,2.2-0.7,4.4-1.1,6.8c-0.4-0.6-0.8-1.2-1.3-1.8c-0.3,0.5-0.6,1-1,1.6
		c-0.4-0.6-0.7-1.2-1.6-2.6c0,5,0,9.1,0,13.2c-0.3,0-0.6,0-0.9,0c-0.2-0.7-0.3-1.4-0.4-1.6c-1.4,4.6-3.5,9.6-4.2,14.8
		c-0.6,4.3,0.5,8.8,0.8,13.1c0.5,5.8,0.9,11.6,0.8,17.5c-1.4-11.5-2.9-23.1-4.2-34.4c-1.1,6.3-2.1,12.7-3.2,19.1
		C224.5,308.8,224.1,308.8,223.7,308.7z"/>
	<path d="M513.5,552.6c-0.3-2.7-1.3-5.6-0.9-8.2c1-5.7,1-11.2,0.2-16.9c-0.6-4.1-3.1-7.5-6.7-8.1c8.1-3.3,16.3-2.6,24.5-1
		c20.9,4.1,41.7,8.4,62.6,12.6c0.1,0,0.1,0.2,0.6,1.3c-3.6-0.5-6.7-0.7-9.8-1.4c-17.1-3.6-34.2-7.5-51.4-10.8
		c-6.7-1.3-13.6-1.6-21.3-2.4c5.2,11.3,4,21.9,3,32.4C514.2,551,513.7,551.8,513.5,552.6L513.5,552.6z"/>
	<path d="M495.4,630.8c1.3-4.2,2.7-8.4,3.9-12.6c2.7-9.2,5.3-18.5,7.9-27.8c0.4-1.3,0.7-2.7,1.9-3.8c-0.9,4.5-1.5,9-2.8,13.3
		c-2.6,8.9-5.4,17.8-8.3,26.7c-0.5,1.6-1.5,2.9-2.3,4.4C495.6,630.9,495.5,630.9,495.4,630.8z"/>
	<path d="M246.2,270.4c0,13.5,0,27.1,0,40.6c-0.4,0-0.7,0-1.1,0c0-13.5,0-27.1,0-40.6C245.5,270.4,245.8,270.4,246.2,270.4z"/>
	<path d="M513.4,552.6c-0.6,6-1,12-1.7,18c-0.4,3.6-1.1,7.1-1.8,11.7c-0.6-1.4-1-1.9-0.9-2.3c1.2-8.7,2.5-17.5,3.8-26.2
		C512.9,553.4,513.3,553,513.4,552.6C513.5,552.6,513.4,552.6,513.4,552.6z"/>
	<path d="M199.3,483.8c0.1-0.1,0.2-0.2,0.3-0.2c2-0.1,7,4.8,7,6.5c-3.2-1.8-9.2-0.8-8.1-7.3c0,0,0,0.2,0,0.2l0,0.1
		C198.7,483.3,199,483.6,199.3,483.8C199.3,483.8,199.3,483.8,199.3,483.8z"/>
	<path d="M195.5,367c0.9,6.1,1.8,12.2,2.7,18.3c-0.4,0-0.7,0.1-1.1,0.1c-0.8-6.2-1.6-12.3-2.4-18.5C195,367,195.3,367,195.5,367z"/>
	<path d="M239.5,295c0,7.3,0,14.5,0,21.8c-0.1,0-0.2,0-0.3,0c0-7.2,0-14.4,0-21.6C239.3,295.1,239.4,295,239.5,295z"/>
	<path d="M285,245.3c0,0.7,0,1.4,0,2.1c0,0.7-0.1,1.5-0.1,2.2c-0.3,0-0.7,0.1-1,0.1c-0.7-3.3-1.4-6.6-2-9.9c0.3-0.1,0.6-0.1,0.9-0.2
		C283.5,241.5,284.3,243.4,285,245.3z"/>
	<path d="M267.7,248.2c0,6.3,0,12.6,0,18.9c-0.1,0-0.2,0-0.3,0c0-6.3,0-12.6,0-18.9C267.4,248.2,267.6,248.2,267.7,248.2z"/>
	<path d="M262.1,499.4c0.4-2.6,0.8-5.1,1.1-7.7c0.2-1.6,0-3.3,0.3-5c0.7,6.4,1.2,12.8-1.1,19c0,0,0.1,0.1,0.1,0.1
		C262.3,503.6,262.2,501.5,262.1,499.4z"/>
	<path d="M415.7,620.8c-0.4,0-0.8,0-1.2,0c-0.2-3.1,1.4-2.5,3.2-1.6c-0.1,0.4-0.2,0.8-0.3,1.2C416.8,620.5,416.3,620.6,415.7,620.8z
		"/>
	<path d="M196.6,483.8c-0.5-0.8-1.1-1.7-1.6-2.5c0.3,0.1,0.6,0.1,0.8,0.2c0.5,0.3,1.1,0.6,1.6,0.9c0,0-0.1-0.1-0.1-0.1
		c0,0.3,0,0.6,0,0.9c0,0,0.1-0.2,0.1-0.2C197.2,483.2,196.9,483.5,196.6,483.8z"/>
	<path d="M542.5,669.2c0-0.2,0-0.3,0-0.5c0.8-0.1,1.6-0.1,2.4-0.2c-0.3,0.3-0.6,0.5-0.9,0.8c0,0,0.1-0.1,0.1-0.1
		C543.6,669.2,543,669.2,542.5,669.2z"/>
	<path d="M197.9,480.6c0,0-0.1,0-0.1,0c0.2,0.6,0.4,1.1,0.6,1.7c0,0-0.1-0.1-0.1-0.1c-0.3,0-0.6,0-0.9,0c0,0,0.1,0.1,0.1,0.1
		C197.6,481.7,197.7,481.2,197.9,480.6z"/>
	<path d="M440.9,614.4c0.1-0.2,0.1-0.5,0-0.7c-0.1,0.2-0.2,0.3-0.3,0.5C440.6,614.3,440.8,614.4,440.9,614.4z"/>
	<path d="M199.3,483.8C199.3,483.8,199.3,483.8,199.3,483.8C199.3,483.8,199.3,483.8,199.3,483.8z"/>
	<path d="M198.4,483C198.4,483,198.5,483,198.4,483c0-0.1-0.2,0-0.2,0c0-0.3,0-0.6,0-0.9c0,0,0.1,0.1,0.1,0.1
		C198.4,482.5,198.4,482.8,198.4,483z"/>
	<path d="M197.5,483.7c0-0.3,0-0.6,0-0.8c0,0-0.1,0.2-0.1,0.2c0.3,0,0.6,0,0.9,0c0,0,0.2-0.1,0.2-0.1s0-0.2,0-0.2
		C198.2,483.1,197.8,483.4,197.5,483.7z"/>
	<path d="M537,666.1c-0.2-0.2-0.4-0.3-0.6-0.5C536.5,665.8,536.7,666,537,666.1z"/>
	<path d="M279.9,521.3l0.1,0.1c0,0.2-0.1,0.4-0.1,0.5C279.9,521.7,279.9,521.5,279.9,521.3z"/>
	<path d="M457.8,141.7c-0.5,0.4-0.9,0.8-1.4,1.2c1.6-3.1,3.2-6.2,4.8-9.3c1.6-0.3,3.2-0.7,4.7-1
		C463.2,135.7,460.5,138.7,457.8,141.7z"/>
	<path d="M311.6,193.4c-0.7,5.3-1.3,10.7-2,16c-0.2,0-0.5,0-0.7-0.1c0.5-4.7,1-9.4,1.5-14.1c0.2-1.6,0.6-3.1,0.8-4.7
		C311.5,191.5,311.6,192.5,311.6,193.4z"/>
	<path d="M82.3,649.6c-1.5,1.5-2.9,3.1-4.4,4.6c1.5-2.3,3-4.6,4.5-6.9c0,0-0.1-0.1-0.1-0.1c0.6,0,1.1,0,1.7,0c0,0,0.1-0.1,0.1-0.1
		c-0.3,0.8-0.5,1.6-0.8,2.4c0,0-0.4,0.1-0.4,0.1c-0.1-0.2-0.1-0.4-0.2-0.6C82.6,649.3,82.4,649.5,82.3,649.6z"/>
	<path d="M178.8,460.3c-0.6-0.1-1.2-0.1-1.8-0.2c1.6,0,3.2,0.1,4.7,0.1c-0.3,0.3-0.5,0.6-0.8,0.9l0,0.1
		C180.3,460.8,179.6,460.6,178.8,460.3z"/>
	<path d="M131.7,518.1c-0.2-0.6-0.5-1.2-0.7-1.8c0.1-0.1,0.3-0.1,0.4-0.2c0.5,1,1,2,1.5,3c0,0,0-0.1,0-0.1
		C132.5,518.7,132.1,518.4,131.7,518.1z"/>
	<path d="M166.6,498.7c0,0.5,0,1.1,0,1.6c-0.1-0.6-0.2-1.1-0.2-1.7C166.4,498.6,166.6,498.7,166.6,498.7z"/>
	<path d="M82.4,647.4c0.3-0.6,0.5-1.1,0.8-1.7c0.3,0.4,0.5,0.9,0.8,1.3c0,0,0.1,0.2,0.1,0.2c0,0-0.1,0.1-0.1,0.1
		C83.5,647.3,82.9,647.3,82.4,647.4C82.3,647.3,82.4,647.4,82.4,647.4z"/>
	<path d="M176.9,460.2c-0.1,0.4-0.3,0.7-0.4,1.1c-0.3-0.4-0.5-0.7-0.8-1.1C176.1,460.3,176.5,460.3,176.9,460.2z"/>
	<path d="M71.5,661.3c-0.1,0.5-0.1,1.1-0.2,1.6c-0.2-0.2-0.4-0.5-0.6-0.7C70.9,661.9,71.2,661.6,71.5,661.3z"/>
	<path d="M181.8,461.1c-0.3,0-0.5,0-0.8,0.1c0,0,0-0.1,0-0.1c0,0,0.4,0,0.4,0L181.8,461.1z"/>
	<path d="M348.4,249.8c0.3,0,0.5,0,0.8,0C348.9,249.8,348.7,249.8,348.4,249.8z"/>
	<path d="M340.5,256.9c-0.1-0.3-0.2-0.6-0.3-1c0,0,0,0.1,0,0.1C340.3,256.3,340.4,256.6,340.5,256.9L340.5,256.9z"/>
	<path d="M130.8,519.8c0.3,0.1,0.7,0.2,1,0.4c0,0-0.1-0.1-0.1-0.1c-0.3,0.2-0.6,0.3-0.9,0.5c0-0.3,0.1-0.6,0.1-0.9
		C131,519.7,130.8,519.8,130.8,519.8z"/>
	<path d="M339.1,258.5c-0.3-0.1-0.6-0.2-0.9-0.3l0-0.4C338.5,258,338.8,258.2,339.1,258.5z"/>
	<path d="M125.6,544c0.2-0.2,0.4-0.4,0.6-0.6C126,543.6,125.8,543.8,125.6,544z"/>
	<path d="M196.2,480.5c-0.1,0.3-0.2,0.7-0.4,1c0.2-0.3,0.3-0.7,0.5-1C196.3,480.5,196.2,480.5,196.2,480.5z"/>
	<path d="M84,645.6c-0.3,0.1-0.6,0.2-0.9,0.2c0.1-0.3,0.2-0.6,0.3-0.9C83.6,645.2,83.8,645.4,84,645.6z"/>
	<path d="M72.2,660.6c-0.3,0.3-0.6,0.6-0.8,0.8C71.7,661.2,71.9,660.9,72.2,660.6z"/>
	<path d="M555,676.4c0.5-0.3,1.1-0.6,1.6-1c-0.3,0.6-0.6,1.1-0.8,1.7C555.5,676.9,555.3,676.6,555,676.4z"/>
	<path d="M415.7,620.7c0.5,0.3,1,0.6,1.6,0.9C416.7,621.3,416.2,621,415.7,620.7z"/>
	<path d="M369.7,167.9c-0.9,4.3-1.8,8.5-2.7,12.8c-0.2,0-0.4-0.1-0.7-0.1c0.6-4.3,1.1-8.7,1.7-13
		C368.6,167.7,369.2,167.8,369.7,167.9z"/>
	<path d="M360.4,167.9c-0.5,3.2-1,6.5-1.6,9.7c-0.4,0-0.7-0.1-1.1-0.1c0.3-3.2,0.6-6.5,0.9-9.7C359.2,167.8,359.8,167.8,360.4,167.9
		z"/>
	<path d="M305.3,221.3c-0.5-4.1-1-8.3-1.6-12.4c0.4,0,0.8-0.1,1.3-0.1c0.3,4.2,0.7,8.3,1,12.5C305.8,221.3,305.6,221.3,305.3,221.3z
		"/>
	<path d="M415,164.3c0-2,0-3.9,0-6.7c1,1.5,1.5,2.3,2,3c0.6-1.2,1.3-2.2,1.9-3.3c0.3,0.2,0.6,0.4,0.9,0.6
		C418.1,160,416.5,162.2,415,164.3C414.9,164.3,415,164.3,415,164.3z"/>
	<path d="M328.1,193.3c0,5.6,0,11.3,0,16.9c-0.2,0-0.4,0-0.6,0c0-5.6,0-11.2,0-16.8C327.7,193.4,327.9,193.4,328.1,193.3z"/>
	<path d="M131.4,519c-0.2,0.3-0.4,0.6-0.6,0.9c0,0,0.2-0.1,0.2-0.1c-0.3,0.3-0.5,0.6-0.8,0.9c-0.3-0.1-0.5-0.2-0.8-0.3
		c0,0,0.2,0.2,0.2,0.2c-1.1-1-2.2-2-3.4-3c0-0.3,0.1-0.6,0.1-0.9c0,0-0.1,0.1-0.1,0.1c0.2-0.4,0.4-0.7,0.5-1.1
		C128.2,516.8,129.8,517.9,131.4,519z"/>
	<path d="M113.8,568.9c0.1-0.2,0.1-0.4,0.1-0.6c0.2,0.1,0.4,0.1,0.6-0.1C114.3,568.5,114,568.7,113.8,568.9z"/>
	<path d="M124.8,516.4c0.1,0,0.2-0.1,0.3-0.1c-0.1-0.1-0.3-0.1-0.4-0.2C124.7,516.2,124.8,516.3,124.8,516.4
		C124.8,516.4,124.8,516.4,124.8,516.4z"/>
	<path d="M124.8,516.4c0.7-0.2,1.3-0.5,2-0.7c-0.2,0.3-0.4,0.7-0.7,1c0,0,0.1-0.1,0.1-0.1C125.8,516.6,125.3,516.5,124.8,516.4
		C124.8,516.4,124.8,516.4,124.8,516.4z"/>
	<path d="M352.3,245.1c0.3,0.3,0.6,0.6,0.9,0.9C352.9,245.7,352.6,245.4,352.3,245.1z"/>
	<path d="M224,411c0.3-0.3,0.5-0.5,0.8-0.8C224.6,410.5,224.3,410.7,224,411z"/>
	<path d="M130.1,520.5c0.3,0,0.6,0,0.9,0c0,0.3,0,0.6,0,0.9c-0.3,0-0.6,0-0.9,0C130.1,521.1,130.1,520.8,130.1,520.5z"/>
</g>
</svg>
